<svg id="fill" xmlns="http://www.w3.org/2000/svg" xmlns:xlink="http://www.w3.org/1999/xlink" viewBox="0 0 194.08 247.72"><defs><style>.cls-1{fill:#afa5ad;}.cls-2{fill:#d3effc;}.cls-3{fill:#e8a24b;}.cls-4{fill:#eeb966;}.cls-5{fill:#fff;}.cls-6{fill:#9b9199;}.cls-7{fill:url(#radial-gradient);}.cls-8{fill:#f69a95;}.cls-9{fill:#fabfb7;}.cls-10{fill:#f37569;}.cls-11,.cls-13,.cls-14{fill:none;}.cls-11,.cls-12,.cls-13,.cls-14{stroke:#000;stroke-miterlimit:10;}.cls-11{stroke-width:1.5px;}.cls-12{stroke-width:0.5px;}.cls-13{stroke-width:2px;}</style><radialGradient id="radial-gradient" cx="118.9" cy="209.5" r="84.32" gradientUnits="userSpaceOnUse"><stop offset="0" stop-color="#fff" stop-opacity="0"/><stop offset="0.1" stop-color="#fdedf0" stop-opacity="0.07"/><stop offset="0.31" stop-color="#fac0c9" stop-opacity="0.25"/><stop offset="0.59" stop-color="#f3768b" stop-opacity="0.54"/><stop offset="0.94" stop-color="#ea1135" stop-opacity="0.93"/><stop offset="1" stop-color="#e90027"/></radialGradient></defs><title>thumpedMole</title><circle cx="146.56" cy="135.89" r="13.01" transform="translate(-28.31 211.28) rotate(-82.03)"/><path class="cls-1" d="M135.94,134.06a6.35,6.35,0,0,1,0-1.59A11.19,11.19,0,0,1,146.74,124c5.58,0,10.1,4.3,10.75,8.47" transform="translate(-19.96 -50.91)"/><path class="cls-2" d="M157.9,133.46l-4,.16,4,4.71S158.82,135.16,157.9,133.46Z" transform="translate(-19.96 -50.91)"/><path class="cls-1" d="M195.25,187.54a29.27,29.27,0,0,0-14.69-2.19,15.68,15.68,0,0,0-9.86,4.52l-7.52-6.19s16-1.5,21.5-5,9-10.5,9.5-16-4.5-4.5-17-11-3-1.5-14-9-8.5-12-14.5-14.5-9-7-24-7-35,16.5-42.88,22.5-9.12,7.5-9.12,16.5,3,8.5,3,18.5-6,9.5-6,9.5A23.44,23.44,0,0,1,66.79,191c-2.39-2.3-4.84-5.12-9.55-5.61a29.27,29.27,0,0,0-14.69,2.19c-4.19,2-4.26,5.26-3.21,7,1.43,2.42,4.91,2.07,11.77,1.84,3.13-.1,3.64,2.3,5,4-4.06,5.16-6.62,11.22-8.44,19.73-4.5,21,.5,24,5.5,35s16.5,22.5,37.5,27.5,27,2.5,27,2.5c44-3,54.5-17,62-29.5s5-11.5,6-22-5-23-7-28.5c-0.23-.63-0.5-1.3-0.79-2L178,203c1.5-2,3.33-6.8,8.69-6.62,6.87,0.22,10.35.58,11.77-1.84C199.5,192.81,199.43,189.57,195.25,187.54Z" transform="translate(-19.96 -50.91)"/><polyline class="cls-3" points="98.38 24.12 98.78 30.64 102.8 41.19 109.71 50.41 112.16 56.84 115.72 65.11 118.14 64.78 124.61 60.68 123.9 56.99 119.65 49.98 115.21 44.37 116.19 40.98 117.5 37.8 102.01 23.06"/><path class="cls-4" d="M59.77,105.71l-2.12,7,0.28,3.48,2,3.46,0.9,4.12-1.59,7.58,1.8,4.73,2.26,5s2.78,0,.13,1.24-2.94,1.6-5,.28-4.34-3.57-3.24-1,1.82,3.05.46,4.47-3.65.32-3.65,0.32l-6.71-12.66-1-10.64L42.14,120l-1.54-4.38s-2.44-.74-1.67-2.27-3.19-8.05.48-6.87S59.77,105.71,59.77,105.71Z" transform="translate(-19.96 -50.91)"/><path d="M132.43,71.44a4.07,4.07,0,0,1,.5,1.27c-2.17.36-2.69,1-1.76,2.74a28.69,28.69,0,0,0,3.26,4.27A20,20,0,0,0,136,81.29l-0.41.39-0.41-.46L129.56,75l-8.16,4.47-2,1.11,4.92,12.92c-3.08-3.39-3.71-7.95-5.78-12.38a30.54,30.54,0,0,0-2.62,2.49c-0.94,1.1-1.67,2.38-2.6,3.5a7.37,7.37,0,0,1-1.71,1.12c1.88-2.57,3.54-4.85,5.2-7.14-7.33,2.81-13.92,7.28-21.54,9.32q-1.14.31-2.3,0.54c-8.39,1.62-16.76,3.41-25.21,4.74L69,95c-0.11-.16-0.21-0.32-0.32-0.49,0.91-.08,1.82-0.09,2.72-0.26,4.55-.83,9.11-1.68,13.64-2.59,3.41-.69,6.85-1.3,10.2-2.27A93.59,93.59,0,0,0,104.36,86a41.67,41.67,0,0,0,4.88-2.54c-12.56,4.74-25.21,4.7-38.07.87a53.34,53.34,0,0,0-24.56-1.12c-3.54.61-6.18,2.67-7,6.12-0.86,3.8-.94,7.78-1.34,11.68a1,1,0,0,0,.3.41h0a10.78,10.78,0,0,0,1.44,8l-1.11.42A47,47,0,0,1,37,97.35c-0.11-7.73,2.86-14.21,7.72-19.94A65.16,65.16,0,0,1,62.67,62.93c4.72-2.67,9.65-5,14.48-7.49a4.45,4.45,0,0,0,.77-0.65l6.87-2.62c2.77-.4,5.54-0.94,8.34-1.18a29.5,29.5,0,0,1,17.69,4.54c5.62,3.36,11.16,6.9,16.55,10.63C129.34,67.52,130.78,69.64,132.43,71.44Zm-3.63,2.73c2.74-1.71,2.71-2.92.27-5.17-1.31-1.21-2.67-2.35-4.06-3.42-6.06-4.62-12.88-8-19.89-10.91A27.14,27.14,0,0,0,89.31,53c-1.14.2-2.26,0.53-3.39,0.7s-2.34.25-3.51,0.37a39.32,39.32,0,0,1,17.15,3.06c7.86,3.28,15.63,6.81,23.43,10.24a2,2,0,0,1,.19.5c-2.58-1-5-2-7.42-3-6.55-2.61-13-5.53-19.67-7.71C86.66,54,77.38,54.25,69.66,59.69a67.78,67.78,0,0,1,7-1.53c6.17-.82,11.86,1,17.42,3.68,5.07,2.44,10.21,4.77,15.43,6.84A70.92,70.92,0,0,0,118.22,71l-0.05.13a2.8,2.8,0,0,1-.67,0,68.46,68.46,0,0,1-20.92-7c-4.87-2.67-10-4.7-15.62-5-7.27-.46-13.56,2.1-19.54,5.87a45.5,45.5,0,0,1-5.12,2.42c2.6-.69,5.08-1.68,7.65-2.21,7.39-1.53,14.66-.31,21.71,2a117.38,117.38,0,0,0,30,6c3.18,0.2,6.39.12,9.57,0.13H126a14,14,0,0,1-1.88.37,10.91,10.91,0,0,1-1.1.11c-10.38.5-20.56-1.15-30.65-3.52-5.52-1.3-11-3-16.53-4A31.62,31.62,0,0,0,58.52,68a21.18,21.18,0,0,0-8.88,6.41c2.77-.79,5.51-1.81,8.35-2.33,5.68-1.07,10.81,1,15.78,3.58,4.34,2.27,8.74,4.33,13.67,4.9,9.57,1.11,18.9-.3,28.13-2.5,2.94-.69,5.77-1.8,8.79-2.77a2.13,2.13,0,0,1-.34.37l-1.44.63c-7.73,3.39-16,4.36-24.27,5.25A40.92,40.92,0,0,1,73.27,76.6c-0.82-.46-1.7-0.82-2.55-1.21-4.94-2.26-10-3.23-15.34-1.85C48.51,75.33,43,78.82,40.72,85.43c1.44-.8,3.09-2.24,5-2.69A49.7,49.7,0,0,1,70.27,83a99.78,99.78,0,0,0,10.54,2.65,56.55,56.55,0,0,0,29-3.07c4.25-1.62,8.44-3.37,12.62-5.17,0.67-.28,1.32-0.58,2-0.88A41.82,41.82,0,0,0,128.8,74.17Z" transform="translate(-19.96 -50.91)"/><path d="M137.66,85.56c1.21,2.27.52,5.94-1.71,8,2.26,3.36,4.47,6.79,6.82,10.13,1.9,2.72,3,5.55,1.84,8.91,0-.34,0-0.66,0-1a3.63,3.63,0,0,0,.05-1c-0.56-1.73-.86-3.63-1.82-5.09a71.41,71.41,0,0,0-11.87-14.18c-0.87-.78-1.88-1.39-2.81-2.08l0.23-.36a41.36,41.36,0,0,1,3.53,2.38c1.16,1,2.17,2.12,3.25,3.19-0.74-3.16-6.6-10.12-11.22-12.31a10,10,0,0,1,2.61,1.25c2.69,2.45,5.23,5,7.86,7.53,0.51,0.48,1.3,1.14,1.77,1a2.29,2.29,0,0,0,1.25-1.66,21,21,0,0,0,0-3.69h0s0,0,0,0Z" transform="translate(-19.96 -50.91)"/><path class="cls-5" d="M135.11,82.09a10.83,10.83,0,0,1,2.24,4.42l0,0A10.82,10.82,0,0,0,135.11,82.09Z" transform="translate(-19.96 -50.91)"/><path d="M135.11,82.09a10.82,10.82,0,0,1,2.23,4.4,21.78,21.78,0,0,0-9.26-9,16.77,16.77,0,0,1,2.3.88,17.35,17.35,0,0,1,4.34,3.27C134.85,81.79,135,81.94,135.11,82.09Z" transform="translate(-19.96 -50.91)"/><path d="M137.34,86.49l0,0s0,0,0,0v0Z" transform="translate(-19.96 -50.91)"/><path class="cls-4" d="M137.35,86.53h0a21,21,0,0,1,0,3.69h-1.13c-1.33-4.84-9.31-10.43-14.51-10.15l-0.35-.65L129.56,75l5.62,6.27-0.46.42a17.35,17.35,0,0,0-4.34-3.27,16.77,16.77,0,0,0-2.3-.88,21.78,21.78,0,0,1,9.26,9v0Z" transform="translate(-19.96 -50.91)"/><path class="cls-4" d="M129.07,69c2.44,2.25,2.47,3.46-.27,5.17a41.82,41.82,0,0,1-4.38,2.32L124,75.65a2.13,2.13,0,0,0,.34-0.37l-0.2-1.47a14,14,0,0,0,1.88-.37H125.2v-1c0-.2.05-0.39,0.08-0.58l-7-.84a70.92,70.92,0,0,1-8.76-2.32c-5.22-2.07-10.36-4.4-15.43-6.84-5.55-2.67-11.24-4.5-17.42-3.68a67.78,67.78,0,0,0-7,1.53c7.72-5.44,17-5.65,26.44-2.57,6.68,2.18,13.12,5.11,19.67,7.71,2.43,1,4.84,1.95,7.42,3a2,2,0,0,0-.19-0.5l2-1.74C126.4,66.65,127.77,67.79,129.07,69Z" transform="translate(-19.96 -50.91)"/><path d="M130.94,96.89c4,0.33,12.21,8.61,13,13.19C141.31,104,136.1,100.49,130.94,96.89Z" transform="translate(-19.96 -50.91)"/><path d="M121.75,80.08c5.2-.28,13.17,5.31,14.51,10.15A23.27,23.27,0,0,0,121.75,80.08Z" transform="translate(-19.96 -50.91)"/><path class="cls-3" d="M125,65.58l-2,1.74c-7.8-3.43-15.57-7-23.43-10.24A39.32,39.32,0,0,0,82.41,54c1.17-.12,2.34-0.19,3.51-0.37s2.26-.5,3.39-0.7a27.14,27.14,0,0,1,15.81,1.72C112.13,57.63,118.94,61,125,65.58Z" transform="translate(-19.96 -50.91)"/><path d="M132,102.68a19.61,19.61,0,0,1,9.67,10.67A35.92,35.92,0,0,0,132,102.68Z" transform="translate(-19.96 -50.91)"/><path d="M125.27,71.84c0,0.19-.06.38-0.08,0.58l-7-1.29,0.05-.13Z" transform="translate(-19.96 -50.91)"/><path class="cls-3" d="M125.19,72.42v1c-3.18,0-6.39.07-9.57-.13a117.38,117.38,0,0,1-30-6c-7.06-2.34-14.32-3.56-21.71-2-2.57.53-5,1.52-7.65,2.21A45.5,45.5,0,0,0,61.42,65c6-3.77,12.27-6.33,19.54-5.87,5.63,0.35,10.74,2.38,15.62,5a68.46,68.46,0,0,0,20.92,7,2.8,2.8,0,0,0,.67,0Z" transform="translate(-19.96 -50.91)"/><path d="M134.17,107.88a7.56,7.56,0,0,1,5.22,6.49c-1.52-2.86-3-5.35-6.36-6.38l3,7.9-0.36.13-5.55-14.57,0.39-.15c0.61,1.59,1.27,3.18,1.81,4.8A2.38,2.38,0,0,0,134.17,107.88Z" transform="translate(-19.96 -50.91)"/><path class="cls-4" d="M124.17,73.81l0.2,1.47c-3,1-5.86,2.08-8.79,2.77-9.23,2.2-18.57,3.61-28.13,2.5-4.93-.57-9.33-2.63-13.67-4.9-5-2.6-10.1-4.64-15.78-3.58-2.84.52-5.58,1.54-8.35,2.33A21.18,21.18,0,0,1,58.52,68a31.62,31.62,0,0,1,17.37-1.57c5.57,1,11,2.68,16.53,4,10.09,2.37,20.27,4,30.65,3.52A10.91,10.91,0,0,0,124.17,73.81Z" transform="translate(-19.96 -50.91)"/><path class="cls-3" d="M124,75.65l0.39,0.85c-0.66.3-1.31,0.59-2,.88-4.18,1.8-8.37,3.55-12.62,5.17a56.55,56.55,0,0,1-29,3.07A99.78,99.78,0,0,1,70.27,83a49.7,49.7,0,0,0-24.55-.22c-1.9.44-3.55,1.89-5,2.69,2.3-6.61,7.79-10.1,14.65-11.88,5.32-1.38,10.41-.41,15.34,1.85,0.85,0.39,1.73.75,2.55,1.21a40.92,40.92,0,0,0,25.05,4.94c8.28-.9,16.54-1.86,24.27-5.25Z" transform="translate(-19.96 -50.91)"/><path d="M110.95,84.07l0.2,0.32-5,3.31-0.3-.46Z" transform="translate(-19.96 -50.91)"/><path class="cls-4" d="M109.24,83.47A41.67,41.67,0,0,1,104.36,86a93.59,93.59,0,0,1-9.17,3.34c-3.34,1-6.79,1.58-10.2,2.27-4.54.91-9.1,1.76-13.64,2.59-0.9.16-1.81,0.18-2.72,0.26,0.1,0.17.21,0.33,0.32,0.49l-1.2.68C76.21,94.3,84.57,92.52,93,90.89q1.17-.23,2.3-0.54l0.57,2.21c-0.27.1-.53,0.21-0.8,0.3C88.94,94.8,82.92,97,76.72,98.59c-6,1.48-12.11,2.24-18.17,3.31-4.53.8-9.07,1.45-13.69,0.65l-2.29-.38a2.78,2.78,0,0,0,1.76.83c3.35,0.16,6.72.34,10.07,0.35,1.88,0,3.77-.31,5.65-0.46h0l-2.07.74a62,62,0,0,1-7.17,2.53c-5.17,1.14-9.85-.8-12.15-4.69l0-.05h0a1,1,0,0,1-.3-0.41c0.4-3.9.48-7.89,1.34-11.68,0.77-3.46,3.42-5.51,7-6.12a53.34,53.34,0,0,1,24.56,1.12C84,88.17,96.68,88.21,109.24,83.47ZM39.93,94.21c7.61-2.43,14.67.6,21.85,1.36C53.54,92.44,43.15,91.77,39.93,94.21Z" transform="translate(-19.96 -50.91)"/><path d="M95.83,92.57L96.08,93c-1.37.69-2.72,1.42-4.13,2s-3,1.17-4.56,1.86l6.15-1.08,0.14,0.25a5.33,5.33,0,0,1-1.31.63c-3.7.69-7.45,1.19-11.13,2-6.87,1.51-13.92,2.67-19.72,7.07a48.44,48.44,0,0,1-6.27,3.71,12.36,12.36,0,0,1-1.55.7c-1,.39-2,0.71-3,1.09A11.72,11.72,0,0,0,43.13,123a65.75,65.75,0,0,0,1.35,7.13,10.2,10.2,0,0,1,.31,2.28c-0.23,5.44,2.43,9.46,6.14,13a33.79,33.79,0,0,1,2.5,2.69l0.2,0.24c-5.38-2.52-9.42-8.58-9.78-15.14a69.22,69.22,0,0,0-2.62-14.53,15.69,15.69,0,0,1-.54-3.48c0.45,1.49.9,3,1.45,4.79,0.68-4.3,3.19-6.83,6.72-8.56-2.65.32-5.21,0.29-7.69-1.52,1.62,0.17,3,.35,4.39.47,4.09,0.35,7.65-1.36,11.14-3.06s6.77-3.65,10.61-5.73l-7.24,1.32v0c-1.88.16-3.77,0.47-5.65,0.46-3.36,0-6.72-.19-10.07-0.35a2.78,2.78,0,0,1-1.76-.83l2.29,0.38c4.62,0.8,9.16.15,13.69-.65,6.06-1.08,12.21-1.83,18.17-3.31C82.92,97,88.94,94.8,95,92.86,95.3,92.78,95.57,92.67,95.83,92.57Z" transform="translate(-19.96 -50.91)"/><path class="cls-3" d="M60.06,102.88l7.24-1.32c-3.84,2.09-7.17,4-10.61,5.73s-7.05,3.41-11.14,3.06c-1.39-.12-2.78-0.3-4.39-0.47l-1.11-.47a10.78,10.78,0,0,1-1.44-8l0,0a9.82,9.82,0,0,0,1.06,2.45,9.51,9.51,0,0,0,8,3.56c4.66-.06,8.59-2,12.31-4.57h0Z" transform="translate(-19.96 -50.91)"/><path d="M60.1,102.89h0Z" transform="translate(-19.96 -50.91)"/><path d="M60.06,102.88h0v0Z" transform="translate(-19.96 -50.91)"/><path d="M58,103.64L60,102.9c-3.72,2.56-7.65,4.51-12.31,4.57a9.51,9.51,0,0,1-8-3.56,9.82,9.82,0,0,1-1.06-2.45c2.3,3.89,7,5.83,12.15,4.69A62,62,0,0,0,58,103.64Z" transform="translate(-19.96 -50.91)"/><path d="M61.78,95.57c-7.17-.76-14.24-3.79-21.85-1.36C43.15,91.77,53.54,92.44,61.78,95.57Z" transform="translate(-19.96 -50.91)"/><path d="M58.28,109.7c0,0.33.08,0.66,0.07,1a6.59,6.59,0,0,1-.09,1.23A7,7,0,0,0,59.83,118a7.54,7.54,0,0,1,1.3,7.66c-1.54,4.23-.9,8.08,1.24,11.9,0.74,1.33,1.23,2.78,1.85,4.19l-0.51.12c-0.76-1.39-1.49-2.8-2.3-4.17-2.15-3.64-2.91-7.47-1.53-11.53a8.54,8.54,0,0,0-1.13-8.53C56.81,115.13,57.67,112.41,58.28,109.7Z" transform="translate(-19.96 -50.91)"/><path d="M54.28,111.59l0.46-.13c-5.81,3.11-7.42,8.53-7.85,14.61C46,119.22,49.35,113.16,54.28,111.59Z" transform="translate(-19.96 -50.91)"/><path class="cls-4" d="M53.71,110.19l0.56,1.4c-4.93,1.57-8.24,7.63-7.39,14.48l0.9,0.17c-0.79,4.46-.71,9,0.56,11.78l0.19,1.63a2.62,2.62,0,0,0-.93.34,4.29,4.29,0,0,1,4,1.77l-0.42.27-0.41.23q1.46,2.79,2.94,5.58l-0.28.24a33.79,33.79,0,0,0-2.5-2.69c-3.7-3.54-6.37-7.57-6.14-13a10.2,10.2,0,0,0-.31-2.28A65.75,65.75,0,0,1,43.13,123a11.72,11.72,0,0,1,7.58-11.71C51.7,110.89,52.73,110.58,53.71,110.19Z" transform="translate(-19.96 -50.91)"/><path d="M56.5,120.29a2.28,2.28,0,0,1,.6-0.44,27.53,27.53,0,0,0-1.48,18.35,30.52,30.52,0,0,1-1.41-5,22.33,22.33,0,0,1,1.66-11.71A11.94,11.94,0,0,1,56.5,120.29Z" transform="translate(-19.96 -50.91)"/><path d="M58.4,122c-0.43,2.78-1.07,5.82-1.33,8.9a42.16,42.16,0,0,0,.32,6.32c0.16,2.35,1.81,3.57,3.61,4.64a7.29,7.29,0,0,1,1.39.93c-4,0-6.26-4.74-10.58-3.76,0-.21,0-0.42.06-0.64,1.28,0.08,2.57.15,3.85,0.21h0l0.14,0.07,1.68,0.9A23.37,23.37,0,0,1,58.4,122Z" transform="translate(-19.96 -50.91)"/><path d="M54.36,115.61c-2.91,6.81-5,13.62-4.18,21.07C48.13,131.89,51.35,118.6,54.36,115.61Z" transform="translate(-19.96 -50.91)"/><path class="cls-5" d="M55.73,138.59l0.14,0.08-0.14-.07h0Z" transform="translate(-19.96 -50.91)"/><path d="M55.71,138.58c0-.12-0.06-0.25-0.09-0.36l0.11,0.36h0Z" transform="translate(-19.96 -50.91)"/><path d="M55.73,138.59h0Z" transform="translate(-19.96 -50.91)"/><rect x="55.72" y="138.58" width="0.01" height="0.01" transform="translate(-65.64 -21.99) rotate(-20.85)"/><path d="M53.74,113.35c-5.14,7.78-6.22,12.9-5.38,24.67-1.27-2.82-1.35-7.32-.56-11.78C48.71,120.93,50.88,115.67,53.74,113.35Z" transform="translate(-19.96 -50.91)"/><path d="M38.62,101.42l0,0.05,0,0h0Z" transform="translate(-19.96 -50.91)"/><path d="M51.18,142l3.08,5.5-0.55.3q-1.48-2.8-2.94-5.58Z" transform="translate(-19.96 -50.91)"/><path d="M55.38,146.14c-1.72-1-2.59-2.93-3.79-4.37a4.29,4.29,0,0,0-4-1.77,2.62,2.62,0,0,1,.93-0.34C50.81,139.2,53.44,141.6,55.38,146.14Z" transform="translate(-19.96 -50.91)"/><path class="cls-6" d="M195.25,187.54a29.27,29.27,0,0,0-14.69-2.19,15.68,15.68,0,0,0-9.86,4.52l-7.52-6.19s16-1.5,21.5-5,9-10.5,9.5-16-4.5-4.5-17-11-3-1.5-14-9-8.5-12-14.5-14.5-9-7-24-7-35,16.5-42.88,22.5-9.12,7.5-9.12,16.5,3,8.5,3,18.5-6,9.5-6,9.5A23.44,23.44,0,0,1,66.79,191c-2.39-2.3-4.84-5.12-9.55-5.61a29.27,29.27,0,0,0-14.69,2.19c-4.19,2-4.26,5.26-3.21,7,1.43,2.42,4.91,2.07,11.77,1.84,3.13-.1,3.64,2.3,5,4-4.06,5.16-6.62,11.22-8.44,19.73-4.5,21,.5,36,5.5,47s16.5,22.5,37.5,27.5,27,2.5,27,2.5c44-3,54.5-17,62-29.5s5-23.5,6-34-5-23-7-28.5c-0.23-.63-0.5-1.3-0.79-2L178,203c1.5-2,3.33-6.8,8.69-6.62,6.87,0.22,10.35.58,11.77-1.84C199.5,192.81,199.43,189.57,195.25,187.54Z" transform="translate(-19.96 -50.91)"/><path class="cls-7" d="M195.25,187.54a29.27,29.27,0,0,0-14.69-2.19,15.68,15.68,0,0,0-9.86,4.52l-7.52-6.19s16-1.5,21.5-5,9-10.5,9.5-16-4.5-4.5-17-11-3-1.5-14-9-8.5-12-14.5-14.5-9-7-24-7-35,16.5-42.88,22.5-9.12,7.5-9.12,16.5,3,8.5,3,18.5-6,9.5-6,9.5A23.44,23.44,0,0,1,66.79,191c-2.39-2.3-4.84-5.12-9.55-5.61a29.27,29.27,0,0,0-14.69,2.19c-4.19,2-4.26,5.26-3.21,7,1.43,2.42,4.91,2.07,11.77,1.84,3.13-.1,3.64,2.3,5,4-4.06,5.16-6.62,11.22-8.44,19.73-4.5,21,.5,36,5.5,47s16.5,22.5,37.5,27.5,27,2.5,27,2.5c44-3,54.5-17,62-29.5s5-23.5,6-34-5-23-7-28.5c-0.23-.63-0.5-1.3-0.79-2L178,203c1.5-2,3.33-6.8,8.69-6.62,6.87,0.22,10.35.58,11.77-1.84C199.5,192.81,199.43,189.57,195.25,187.54Z" transform="translate(-19.96 -50.91)"/><path class="cls-1" d="M137.49,124.83a12.33,12.33,0,0,1,2.58-3.65c1.5-1.27,2.25-1.77,3.67-1.85a6.34,6.34,0,0,1,4.17,1.85,8.39,8.39,0,0,1,2.17,4.08C150.24,126.75,137.49,124.83,137.49,124.83Z" transform="translate(-19.96 -50.91)"/><path class="cls-1" d="M99.95,130.67s-1.83-2.67-1.42-5,0.83-3.33,2.46-4.52a5.1,5.1,0,0,1,4.13-1.27c1.54,0.17,3.42,1.38,4.83,4S99.95,130.67,99.95,130.67Z" transform="translate(-19.96 -50.91)"/><ellipse class="cls-8" cx="28.41" cy="190.96" rx="6.7" ry="3.68" transform="translate(-82.92 -30.02) rotate(-19.79)"/><path class="cls-9" d="M29.44,205.88c-0.94-1.52-.65-4.14.92-7.71,1.15-2.63,3.25-2.75,3.5-4.5,0.31-2.16-1.34-2.27-4.54-2.91-4-.79-5.71-0.34-7.79-2.76-1.68-2-.69-5.65,3.54-6.62,3.79-.87,9.39,1.63,11.79,2.63s6.33,4.62,6.83,6.38c0.7,2.45,1.63,5.13,1.25,7.25s-1,4.13-2.5,4.38-3.5-1.06-4.54-.21c-1.75,1.42-.84,2.18-1.11,3.4C36.27,207.58,32.35,210.58,29.44,205.88Z" transform="translate(-19.96 -50.91)"/><ellipse class="cls-8" cx="205.59" cy="190.96" rx="3.68" ry="6.7" transform="translate(-63.65 268.86) rotate(-70.21)"/><path class="cls-9" d="M204.56,205.88c0.94-1.52.65-4.14-.92-7.71-1.15-2.63-3.25-2.75-3.5-4.5-0.31-2.16,1.34-2.27,4.54-2.91,4-.79,5.71-0.34,7.79-2.76,1.68-2,.69-5.65-3.54-6.62-3.79-.87-9.39,1.63-11.79,2.63s-6.33,4.62-6.83,6.38c-0.7,2.45-1.63,5.13-1.25,7.25s1,4.13,2.5,4.38,3.5-1.06,4.54-.21c1.75,1.42.84,2.18,1.11,3.4C197.73,207.58,201.65,210.58,204.56,205.88Z" transform="translate(-19.96 -50.91)"/><ellipse cx="113.93" cy="134.15" rx="13.5" ry="12.95" transform="translate(-54.69 177.47) rotate(-82.03)"/><ellipse class="cls-2" cx="114.02" cy="133.7" rx="10.53" ry="10.93" transform="translate(-54.17 177.16) rotate(-82.03)"/><circle cx="113.86" cy="131.31" r="2.34" transform="translate(-23.74 -47.53) rotate(-1.67)"/><path class="cls-9" d="M172.74,153.5s-3.83-.33-4.75,1.33-2.42,2.67-1.67,5.92,2.25,8.25,5.92,10.92a12,12,0,0,0,9,1.83c1.33-.17,5.75-1,8.21-4.42s4-6.17,4.19-8.58,0-4.42-1.65-5.83-2.58-1.22-4.83-1.19S172.74,153.5,172.74,153.5Z" transform="translate(-19.96 -50.91)"/><path class="cls-8" d="M172.74,156.42s-3.83-.29-4.75,1.14-2.42,2.28-1.67,5.06,2.25,7.06,5.92,9.34,7.67,1.71,9,1.57,5.75-.86,8.21-3.78,4-5.28,4.19-7.34,0-3.78-1.65-5-2.58-1-4.83-1S172.74,156.42,172.74,156.42Z" transform="translate(-19.96 -50.91)"/><ellipse cx="158.57" cy="111.84" rx="2.13" ry="3.67"/><ellipse cx="165.99" cy="111.84" rx="2.13" ry="3.67"/><path d="M159.95,216.58s-0.83,5.72-12.79,6.43-15.79-.71-18.53-3.21-4.79-4.13-5.4-10.73c-0.66-7.25-4.32-14.84.72-23.13,4.64-7.63,14.21-4,28.59-2.1,0,0,2.44,14.09,6.05,28.93C159.57,216.79,159.95,216.58,159.95,216.58Z" transform="translate(-19.96 -50.91)"/><path class="cls-10" d="M152,219.94s-7.05.75-10.31,0.81c-4,.07-7.75-0.12-11.62-2.87,0,0,.16-6.83,4.74-7.84,2.66-.58,4.9-2,6.4,3.39,0,0,.47-1.35,3.24-3.39s4-1.21,5.22,0S151.6,212.24,152,219.94Z" transform="translate(-19.96 -50.91)"/><path class="cls-11" d="M138.44,123.13a9.06,9.06,0,0,1,1.63-1.94c1.5-1.27,2.25-1.77,3.67-1.85a6.34,6.34,0,0,1,4.17,1.85,10.23,10.23,0,0,1,1.68,2.49" transform="translate(-19.96 -50.91)"/><path class="cls-12" d="M33,209c-1.06,0-2.62-.47-4-2.72h0c-1-1.69-.75-4.44.88-8.17a7.15,7.15,0,0,1,2.27-2.8,2.59,2.59,0,0,0,1.19-1.57c0.2-1.38-.37-1.62-3.35-2.19l-0.8-.16c-1-.19-1.8-0.31-2.53-0.41-2.32-.33-3.85-0.55-5.54-2.51a3.9,3.9,0,0,1-.68-3.79,5.82,5.82,0,0,1,4.49-3.65c3.74-.86,9.1,1.39,11.67,2.47L37,183.72c2.49,1,6.17,4.85,7.08,6.61a11.83,11.83,0,0,1,1.3,7.57c-0.36,2.06-1,4.47-2.91,4.78a5.8,5.8,0,0,1-2.28-.25,2.68,2.68,0,0,0-2-.06,1.79,1.79,0,0,0-.9,1.93,3.72,3.72,0,0,1,0,1.18A4.83,4.83,0,0,1,33.59,209,3.53,3.53,0,0,1,33,209Zm-3.16-3.25c1,1.67,2.28,2.44,3.59,2.21a3.82,3.82,0,0,0,2.85-2.74,2.82,2.82,0,0,0,0-.88,2.73,2.73,0,0,1,1.27-2.8c0.79-.64,1.86-0.38,2.89-0.13a5.14,5.14,0,0,0,1.88.24c1-.16,1.64-1.42,2.09-4a10.85,10.85,0,0,0-1.21-6.93c-0.82-1.59-4.39-5.23-6.58-6.14l-0.43-.18c-2.48-1-7.63-3.21-11.06-2.42a4.85,4.85,0,0,0-3.77,3,2.9,2.9,0,0,0,.49,2.83c1.45,1.68,2.68,1.85,4.92,2.17,0.75,0.11,1.6.23,2.59,0.42l0.79,0.15c2.71,0.52,4.5.87,4.15,3.31a3.45,3.45,0,0,1-1.55,2.2,6.21,6.21,0,0,0-2,2.43c-1.47,3.36-1.8,5.87-.95,7.24h0Z" transform="translate(-19.96 -50.91)"/><path class="cls-12" d="M70.09,203c2.23-3.64-.87-7.85-2.31-9.49-3.1-3.54-6-6.85-12.49-7.52a29.39,29.39,0,0,0-13.79,1.86L41.11,187A30.55,30.55,0,0,1,55.39,185c6.87,0.71,9.9,4.17,13.12,7.84,1.6,1.83,5,6.49,2.43,10.69" transform="translate(-19.96 -50.91)"/><path class="cls-12" d="M65.41,207H65.06a10.82,10.82,0,0,1-7.55-3.51c-0.27-.36-0.55-0.81-0.87-1.31-1.38-2.22-3.27-5.22-7.41-5.12l-1.7.06-2.53.08,0-1,2.52-.08,1.71-.06c4.68-.18,6.86,3.3,8.29,5.58,0.29,0.47.56,0.9,0.82,1.24a9.73,9.73,0,0,0,7.06,3.1" transform="translate(-19.96 -50.91)"/><path class="cls-12" d="M26,195.79a8.06,8.06,0,0,1-1.25-.09,3.64,3.64,0,0,1-3.12-2.11c-0.46-1.28.12-2.8,1.6-4.16l0.68,0.73c-1.15,1.06-1.65,2.22-1.33,3.09a2.72,2.72,0,0,0,2.33,1.46,9.53,9.53,0,0,0,4.57-.57,9.89,9.89,0,0,0,3.65-2.23l0.71,0.7a10.91,10.91,0,0,1-4,2.47A11.44,11.44,0,0,1,26,195.79Z" transform="translate(-19.96 -50.91)"/><path class="cls-12" d="M200.41,209a4.83,4.83,0,0,1-3.65-3.51,3.72,3.72,0,0,1,0-1.18,1.79,1.79,0,0,0-.9-1.93,2.68,2.68,0,0,0-2,.06,5.8,5.8,0,0,1-2.28.25c-1.89-.31-2.55-2.72-2.91-4.78a11.83,11.83,0,0,1,1.3-7.57c0.91-1.76,4.59-5.57,7.08-6.61l0.43-.18c2.57-1.08,7.93-3.33,11.67-2.47a5.82,5.82,0,0,1,4.49,3.65,3.9,3.9,0,0,1-.68,3.79c-1.69,2-3.22,2.18-5.54,2.51-0.74.1-1.57,0.22-2.53,0.41l-0.8.16c-3,.58-3.55.81-3.35,2.19a2.59,2.59,0,0,0,1.19,1.57,7.15,7.15,0,0,1,2.27,2.8c1.64,3.73,1.93,6.48.88,8.17h0c-1.39,2.25-2.95,2.72-4,2.72A3.53,3.53,0,0,1,200.41,209Zm3.76-3.19c0.85-1.38.53-3.88-.95-7.24a6.21,6.21,0,0,0-2-2.43,3.45,3.45,0,0,1-1.55-2.2c-0.35-2.45,1.44-2.79,4.15-3.31l0.79-.15c1-.2,1.84-0.32,2.59-0.42,2.24-.32,3.47-0.49,4.92-2.17a2.9,2.9,0,0,0,.49-2.83,4.85,4.85,0,0,0-3.77-3c-3.42-.79-8.58,1.38-11.06,2.42l-0.43.18c-2.19.91-5.75,4.55-6.58,6.14a10.85,10.85,0,0,0-1.21,6.93c0.45,2.54,1.11,3.81,2.09,4a5.14,5.14,0,0,0,1.88-.24c1-.25,2.1-0.51,2.89.13a2.73,2.73,0,0,1,1.27,2.8,2.82,2.82,0,0,0,0,.88,3.82,3.82,0,0,0,2.85,2.74c1.31,0.23,2.56-.54,3.59-2.21h0Z" transform="translate(-19.96 -50.91)"/><path class="cls-12" d="M175.19,204.77a6.83,6.83,0,0,0,1.31-1.24c0.27-.36.55-0.81,0.87-1.31,1.38-2.22,3.27-5.22,7.41-5.12l1.7,0.06,2.53,0.08,0-1-2.52-.08-1.71-.06c-4.68-.18-6.86,3.3-8.29,5.58-0.29.47-.56,0.9-0.82,1.24a5.58,5.58,0,0,1-1,1" transform="translate(-19.96 -50.91)"/><path class="cls-12" d="M168.79,190.76a15.36,15.36,0,0,1,9.91-4.72,29.39,29.39,0,0,1,13.79,1.86l0.39-.92A30.55,30.55,0,0,0,178.61,185a16.1,16.1,0,0,0-10.17,4.67" transform="translate(-19.96 -50.91)"/><path class="cls-12" d="M208,195.79a8.06,8.06,0,0,0,1.25-.09,3.64,3.64,0,0,0,3.12-2.11c0.46-1.28-.12-2.8-1.6-4.16l-0.68.73c1.15,1.06,1.65,2.22,1.33,3.09a2.72,2.72,0,0,1-2.33,1.46,9.53,9.53,0,0,1-4.57-.57,9.89,9.89,0,0,1-3.65-2.23l-0.71.7a10.91,10.91,0,0,0,4,2.47A11.44,11.44,0,0,0,208,195.79Z" transform="translate(-19.96 -50.91)"/><path class="cls-13" d="M193.36,161.34c1.58,4.77-4,12.82-7.27,15.65-6.15,5.28-16,5.92-23.73,6.7a89.51,89.51,0,0,1,6.83,6" transform="translate(-19.96 -50.91)"/><path class="cls-13" d="M118.9,122.44c8.89-1.73,18-.57,27.51,5.08,7.58,4.52,12.5,12.55,19.93,18a81,81,0,0,0,13.7,7.93" transform="translate(-19.96 -50.91)"/><path class="cls-13" d="M65.8,190.41l0.59-.43c5.92-4.23,9.28-5.15,8.34-14.58-0.79-8-5.63-16.61-1.26-24.58,3.51-6.39,13.63-12,19.51-16.13A120.82,120.82,0,0,1,103.15,128" transform="translate(-19.96 -50.91)"/><path class="cls-11" d="M99.95,130.67s-1.83-2.67-1.42-5,0.83-3.33,2.46-4.52a5.1,5.1,0,0,1,4.13-1.27,5.69,5.69,0,0,1,3.49,2" transform="translate(-19.96 -50.91)"/><path class="cls-11" d="M172.74,153.5s-3.83-.33-4.75,1.33-2.42,2.67-1.67,5.92,2.25,8.25,5.92,10.92a12,12,0,0,0,9,1.83c1.33-.17,5.75-1,8.21-4.42s4-6.17,4.19-8.58,0-4.42-1.65-5.83-2.58-1.22-4.83-1.19S172.74,153.5,172.74,153.5Z" transform="translate(-19.96 -50.91)"/><path class="cls-13" d="M176.92,202.36l0.26,0.68c3.92,10.49,3.47,9.25,3.92,10.49,2,5.55,3.73,11.3,3.87,17.25,0.29,12.37.12,25.92-6.11,36.91-6.37,11.23-15.9,18.91-28,23.3-31.61,11.41-81.62,10.89-98.46-23.8-9.63-19.83-11-47.22,2.83-65.52l0.93-1.21" transform="translate(-19.96 -50.91)"/><path d="M117.74,112.33s0.51-3,0-4.17-3.09-1.58-4.51-.67a7.77,7.77,0,0,0-3.42,6.67S112.07,111.5,117.74,112.33Z" transform="translate(-19.96 -50.91)"/><path d="M154.13,110.77s0.35-3,1.16-4,3.41-.66,4.51.62a7.77,7.77,0,0,1,1.42,7.35S159.81,111.56,154.13,110.77Z" transform="translate(-19.96 -50.91)"/><path d="M140.57,181.33l5,17.79a17.9,17.9,0,0,0,10,2.42c6.25-.17,8.58-1.5,8.58-1.5l4.92-17.25-12.83-.46C150.15,182.11,140.57,181.33,140.57,181.33Z" transform="translate(-19.96 -50.91)"/><path class="cls-5" d="M143.07,181.88l4.08,16.46a23.94,23.94,0,0,0,8.64,1.16c5.3-.15,7.28-1.31,7.28-1.31l4.17-15-10.88-.4C151.2,182.56,143.07,181.88,143.07,181.88Z" transform="translate(-19.96 -50.91)"/><line class="cls-14" x1="136.17" y1="131.97" x2="135.83" y2="148.59"/><path class="cls-11" d="M169.07,182.78s-32.4-1.26-38.54-1.45c-18.49-.59-27.16-3.52-35.87,4.61" transform="translate(-19.96 -50.91)"/><path d="M94.66,185.94a7.82,7.82,0,0,1-.08-6.92,6.67,6.67,0,0,0-2.41,6.44c0.79,3.67,4.82,5.92,9,5a8.85,8.85,0,0,0,1-.28A7.84,7.84,0,0,1,94.66,185.94Z" transform="translate(-19.96 -50.91)"/></svg>