<svg id="fill" xmlns="http://www.w3.org/2000/svg" viewBox="0 0 194.08 213.17"><defs><style>.cls-1{fill:#eeb966;}.cls-2{fill:#e8a24b;}.cls-3{fill:#fff;}.cls-4{fill:#9b9199;}.cls-5{fill:#afa5ad;}.cls-6{fill:#d3effc;}.cls-11,.cls-13,.cls-14,.cls-7{fill:none;}.cls-7{stroke:#c7bac4;stroke-width:5px;}.cls-11,.cls-12,.cls-13,.cls-14,.cls-7{stroke-miterlimit:10;}.cls-8{fill:#f69a95;}.cls-9{fill:#fabfb7;}.cls-10{fill:#f37569;}.cls-11,.cls-12,.cls-13,.cls-14{stroke:#000;}.cls-11{stroke-width:1.5px;}.cls-12{stroke-width:0.5px;}.cls-14{stroke-width:2px;}</style></defs><title>trumpMole</title><ellipse class="cls-1" cx="73.91" cy="46.57" rx="19.81" ry="7.41"/><polyline class="cls-2" points="132.07 30.33 130.87 36.76 132.2 47.96 136.67 58.59 137.48 65.42 138.92 74.31 141.35 74.57 148.62 72.17 148.82 68.42 146.41 60.59 143.47 54.07 145.24 51.01 147.29 48.25 135.85 30.18"/><path class="cls-1" d="M87.75,74.21L84,80.52,83.41,84,84.5,87.8,84.37,92,81,99l0.6,5,1,5.42s2.7,0.64-.18,1.24-3.24.83-4.94-1-3.34-4.52-2.89-1.77,1,3.41-.64,4.45-3.62-.58-3.62-0.58L66.84,97.91l1.58-10.57-1.24-3.59-0.43-4.62s-2.19-1.31-1.07-2.61S64.55,67.92,67.83,70,87.75,74.21,87.75,74.21Z" transform="translate(-19.96 -28.36)"/><path d="M166.57,58.64a4.07,4.07,0,0,1,.18,1.35c-2.19-.18-2.86.34-2.37,2.23a28.69,28.69,0,0,0,2.12,4.94,20,20,0,0,0,1.14,1.89l-0.49.28-0.29-.54c-1.3-2.47-2.61-4.94-3.93-7.44l-9,2.35-2.22.59L153.34,78c-2.17-4-1.67-8.61-2.59-13.42a30.54,30.54,0,0,0-3.15,1.78c-1.18.84-2.2,1.9-3.38,2.76a7.37,7.37,0,0,1-1.93.67c2.44-2,4.62-3.85,6.78-5.66-7.79.95-15.27,3.68-23.16,3.81q-1.18,0-2.36,0c-8.54-.47-17.08-0.77-25.61-1.53L99.28,66c-0.07-.18-0.13-0.37-0.19-0.55,0.9,0.15,1.79.35,2.7,0.41,4.61,0.3,9.24.59,13.86,0.81,3.47,0.16,7,.4,10.44.28a93.59,93.59,0,0,0,9.7-1,41.67,41.67,0,0,0,5.35-1.28c-13.33,1.55-25.6-1.57-37.14-8.41a53.34,53.34,0,0,0-23.55-7.06c-3.58-.27-6.64,1.08-8.24,4.25-1.76,3.48-2.8,7.32-4.14,11a1,1,0,0,0,.19.47h0A10.78,10.78,0,0,0,67.73,73l-1.18.14a47,47,0,0,1,1.19-12.58C69.51,53,74,47.48,80.07,43.1A65.16,65.16,0,0,1,101,33.42c5.23-1.44,10.57-2.51,15.86-3.75a4.45,4.45,0,0,0,.91-0.44l7.3-.87c2.79,0.28,5.61.44,8.38,0.89A29.5,29.5,0,0,1,149.48,38c4.64,4.63,9.15,9.41,13.47,14.34C164.52,54.09,165.41,56.49,166.57,58.64Zm-4.18,1.77c3.08-1,3.34-2.17,1.52-5-1-1.49-2-2.93-3.11-4.3-4.76-6-10.56-10.85-16.64-15.42a27.14,27.14,0,0,0-14.92-5.51c-1.15-.08-2.32,0-3.46-0.14s-2.33-.33-3.49-0.49a39.32,39.32,0,0,1,15.89,7.13c6.83,5.09,13.51,10.4,20.24,15.63a2,2,0,0,1,.06.53c-2.25-1.64-4.35-3.18-6.47-4.7-5.72-4.12-11.25-8.53-17.2-12.27-8.4-5.28-17.45-7.34-26.27-3.94a67.78,67.78,0,0,1,7.12.21c6.19,0.71,11.26,3.86,16,7.8,4.32,3.6,8.74,7.11,13.3,10.39a70.92,70.92,0,0,0,7.93,4.38l-0.08.12a2.8,2.8,0,0,1-.67-0.12,68.46,68.46,0,0,1-18.6-11.85c-4.08-3.78-8.54-7-13.92-8.7C112.69,32,106,33,99.25,35.16a45.5,45.5,0,0,1-5.56,1.1c2.69,0,5.34-.39,8-0.28,7.54,0.31,14.29,3.27,20.57,7.25a117.38,117.38,0,0,0,27.6,13.15c3,1,6.17,1.67,9.25,2.45l0.82,0.2a14,14,0,0,1-1.91-.09,10.91,10.91,0,0,1-1.09-.16c-10.19-2-19.67-6.12-28.87-10.87-5-2.6-9.91-5.55-15.07-7.88a31.62,31.62,0,0,0-17.23-2.7,21.18,21.18,0,0,0-10.17,4.06c2.88-.1,5.78-0.41,8.66-0.23,5.77,0.35,10.25,3.58,14.43,7.31,3.66,3.25,7.43,6.33,12.07,8.08,9,3.41,18.4,4.31,27.9,4.42,3,0,6-.35,9.2-0.55a2.13,2.13,0,0,1-.42.27l-1.55.26c-8.32,1.41-16.57.34-24.82-.81a40.92,40.92,0,0,1-23.1-10.88c-0.68-.64-1.45-1.2-2.18-1.79-4.24-3.39-8.94-5.57-14.43-5.52-7.09.06-13.26,2.11-17.1,8,1.59-.42,3.54-1.43,5.49-1.39a49.7,49.7,0,0,1,23.76,6.19A99.78,99.78,0,0,0,113,59.83a56.55,56.55,0,0,0,28.89,4.08c4.51-.54,9-1.22,13.5-1.95l2.13-.37A41.82,41.82,0,0,0,162.38,60.41Z" transform="translate(-19.96 -28.36)"/><path d="M168.21,73.61c0.62,2.5-.94,5.89-3.6,7.32,1.37,3.81,2.69,7.67,4.15,11.49,1.18,3.1,1.53,6.11-.38,9.09,0.07-.33.11-0.65,0.19-1a3.63,3.63,0,0,0,.3-1c-0.12-1.81,0-3.73-.52-5.38a71.41,71.41,0,0,0-8.06-16.64c-0.65-1-1.48-1.8-2.22-2.7l0.31-.29a41.36,41.36,0,0,1,2.84,3.16c0.89,1.22,1.59,2.58,2.38,3.88,0.06-3.25-3.94-11.42-7.89-14.67a10,10,0,0,1,2.22,1.84c2,3,3.85,6.16,5.8,9.21,0.38,0.59,1,1.42,1.47,1.42a2.29,2.29,0,0,0,1.61-1.3,21,21,0,0,0,.86-3.58h0s0,0,0,0Z" transform="translate(-19.96 -28.36)"/><path class="cls-3" d="M166.58,69.63a10.83,10.83,0,0,1,1.1,4.83,0,0,0,0,0,0,0A10.82,10.82,0,0,0,166.58,69.63Z" transform="translate(-19.96 -28.36)"/><path d="M166.58,69.63a10.82,10.82,0,0,1,1.09,4.81,21.78,21.78,0,0,0-6.79-11,16.77,16.77,0,0,1,2,1.42,17.35,17.35,0,0,1,3.41,4.23C166.4,69.27,166.49,69.44,166.58,69.63Z" transform="translate(-19.96 -28.36)"/><path d="M167.67,74.43a0,0,0,0,1,0,0s0,0,0,0v0Z" transform="translate(-19.96 -28.36)"/><path class="cls-1" d="M167.67,74.47h0a21,21,0,0,1-.86,3.58l-1.1-.27c-0.12-5-6.5-12.38-11.61-13.37l-0.18-.72,9-2.35c1.31,2.51,2.63,5,3.93,7.44l-0.55.3a17.35,17.35,0,0,0-3.41-4.23,16.77,16.77,0,0,0-2-1.42,21.78,21.78,0,0,1,6.79,11v0Z" transform="translate(-19.96 -28.36)"/><path class="cls-1" d="M163.91,55.46c1.82,2.78,1.55,4-1.52,5a41.82,41.82,0,0,1-4.81,1.19l-0.18-.92a2.13,2.13,0,0,0,.42-0.27L158,58.93a14,14,0,0,0,1.91.09l-0.82-.2,0.24-1,0.22-.54-6.63-2.53A70.92,70.92,0,0,1,145,50.37c-4.56-3.28-9-6.79-13.3-10.39-4.74-3.94-9.81-7.1-16-7.8a67.78,67.78,0,0,0-7.12-.21c8.82-3.4,17.87-1.34,26.27,3.94,6,3.74,11.48,8.15,17.2,12.27,2.12,1.52,4.22,3.07,6.47,4.7a2,2,0,0,0-.06-0.53l2.38-1.2C161.89,52.53,162.93,54,163.91,55.46Z" transform="translate(-19.96 -28.36)"/><path d="M158.93,83c3.79,1.29,9.75,11.32,9.36,15.95C167.27,92.34,163.07,87.71,158.93,83Z" transform="translate(-19.96 -28.36)"/><path d="M154.11,64.43c5.11,1,11.49,8.35,11.61,13.37A23.27,23.27,0,0,0,154.11,64.43Z" transform="translate(-19.96 -28.36)"/><path class="cls-2" d="M160.79,51.16l-2.38,1.2c-6.73-5.23-13.41-10.54-20.24-15.63a39.32,39.32,0,0,0-15.89-7.13c1.16,0.16,2.32.39,3.49,0.49s2.31,0.07,3.46.14a27.14,27.14,0,0,1,14.92,5.51C150.24,40.3,156,45.2,160.79,51.16Z" transform="translate(-19.96 -28.36)"/><path d="M158.52,88.83a19.61,19.61,0,0,1,6.79,12.7A35.92,35.92,0,0,0,158.52,88.83Z" transform="translate(-19.96 -28.36)"/><path d="M159.53,57.29l-0.22.54-6.49-3,0.08-.12Z" transform="translate(-19.96 -28.36)"/><path class="cls-2" d="M159.3,57.83l-0.24,1c-3.09-.78-6.21-1.49-9.25-2.45a117.38,117.38,0,0,1-27.6-13.15c-6.28-4-13-6.94-20.57-7.25-2.62-.11-5.27.25-8,0.28a45.5,45.5,0,0,0,5.56-1.1C106,33,112.69,32,119.63,34.22c5.37,1.71,9.84,4.92,13.92,8.7a68.46,68.46,0,0,0,18.6,11.85,2.8,2.8,0,0,0,.67.12Z" transform="translate(-19.96 -28.36)"/><path d="M159.39,94.41a7.56,7.56,0,0,1,3.49,7.56c-0.78-3.15-1.6-5.92-4.62-7.73l1,8.4-0.38,0L157,87.19l0.42,0c0.2,1.69.46,3.39,0.59,5.1A2.38,2.38,0,0,0,159.39,94.41Z" transform="translate(-19.96 -28.36)"/><path class="cls-1" d="M158,58.93l-0.16,1.47c-3.17.2-6.19,0.59-9.2,0.55-9.49-.11-18.89-1-27.9-4.42-4.64-1.75-8.41-4.82-12.07-8.08-4.18-3.73-8.67-7-14.43-7.31-2.88-.18-5.79.13-8.66,0.23a21.18,21.18,0,0,1,10.17-4.06A31.62,31.62,0,0,1,112.94,40c5.16,2.32,10,5.28,15.07,7.88,9.21,4.75,18.68,8.83,28.87,10.87A10.91,10.91,0,0,0,158,58.93Z" transform="translate(-19.96 -28.36)"/><path class="cls-2" d="M157.4,60.68l0.18,0.92-2.13.37c-4.49.73-9,1.41-13.5,1.95A56.55,56.55,0,0,1,113,59.83a99.78,99.78,0,0,1-9.58-5.13,49.7,49.7,0,0,0-23.76-6.19c-2,0-3.9,1-5.49,1.39,3.84-5.85,10-7.9,17.1-8,5.49,0,10.19,2.13,14.43,5.52,0.73,0.59,1.5,1.15,2.18,1.79A40.92,40.92,0,0,0,131,60.14c8.25,1.15,16.5,2.21,24.82.81Z" transform="translate(-19.96 -28.36)"/><path d="M142.66,65.67L142.78,66l-5.65,2-0.18-.52Z" transform="translate(-19.96 -28.36)"/><path class="cls-1" d="M141.15,64.67A41.67,41.67,0,0,1,135.79,66a93.59,93.59,0,0,1-9.7,1c-3.48.12-7-.12-10.44-0.28-4.62-.22-9.25-0.51-13.86-0.81-0.91-.06-1.8-0.26-2.7-0.41,0.06,0.19.12,0.38,0.19,0.55l-1.33.37c8.52,0.76,17.07,1.06,25.61,1.53q1.19,0.06,2.36,0v2.28c-0.28,0-.57.08-0.85,0.09-6.38.4-12.76,1.11-19.15,1.1-6.14,0-12.29-.77-18.43-1.2-4.59-.32-9.15-0.8-13.44-2.7l-2.13-.93a2.78,2.78,0,0,0,1.5,1.24c3.21,1,6.43,2,9.69,2.79,1.82,0.47,3.73.62,5.59,0.93h0l-2.19.21a62,62,0,0,1-7.57.7c-5.29-.15-9.36-3.17-10.64-7.51V64.9h0a1,1,0,0,1-.19-0.47c1.34-3.69,2.39-7.53,4.14-11,1.59-3.16,4.65-4.51,8.24-4.25A53.34,53.34,0,0,1,104,56.26C115.55,63.1,127.82,66.22,141.15,64.67ZM71.31,58.23c8-.51,14.09,4.15,20.86,6.63C84.94,59.82,75,56.65,71.31,58.23Z" transform="translate(-19.96 -28.36)"/><path d="M125.93,70.23c0,0.16.09,0.33,0.13,0.49-1.5.33-3,.72-4.5,1s-3.22.39-4.88,0.7l6.23,0.45L123,73.12a5.33,5.33,0,0,1-1.42.3c-3.76-.24-7.51-0.66-11.28-0.77-7-.21-14.15-0.8-20.84,2.06a48.44,48.44,0,0,1-7,2.07,12.36,12.36,0,0,1-1.67.31c-1,.13-2.13.19-3.17,0.33a11.72,11.72,0,0,0-10.2,9.51A65.75,65.75,0,0,0,67,94.16a10.2,10.2,0,0,1-.26,2.28c-1.55,5.22.06,9.77,2.79,14.11a33.79,33.79,0,0,1,1.77,3.21l0.14,0.29c-4.6-3.76-7-10.61-5.81-17.06a69.22,69.22,0,0,0,1-14.73,15.69,15.69,0,0,1,.32-3.51c0.08,1.55.15,3.1,0.24,5,1.71-4,4.75-5.85,8.6-6.67-2.65-.34-5.12-1-7.09-3.34,1.52,0.56,2.82,1.07,4.14,1.53,3.88,1.33,7.75.54,11.55-.26s7.45-1.89,11.69-3l-7.34-.48h0c-1.86-.31-3.77-0.46-5.59-0.93-3.25-.82-6.47-1.82-9.69-2.79a2.78,2.78,0,0,1-1.5-1.24l2.13,0.93c4.28,1.9,8.85,2.37,13.44,2.7,6.14,0.43,12.29,1.19,18.43,1.2,6.39,0,12.77-.7,19.15-1.1C125.37,70.31,125.65,70.27,125.93,70.23Z" transform="translate(-19.96 -28.36)"/><path class="cls-2" d="M88.73,71.53L96.07,72c-4.24,1.09-7.93,2.18-11.69,3s-7.67,1.59-11.55.26c-1.32-.46-2.62-1-4.14-1.53l-1-.72a10.78,10.78,0,0,1,.55-8.08v0a9.82,9.82,0,0,0,.44,2.63A9.51,9.51,0,0,0,75.64,73c4.53,1.07,8.82.13,13-1.44h0Z" transform="translate(-19.96 -28.36)"/><path d="M88.76,71.55h0Z" transform="translate(-19.96 -28.36)"/><path d="M88.73,71.53h0Z" transform="translate(-19.96 -28.36)"/><path d="M86.5,71.76l2.19-.21c-4.23,1.58-8.52,2.51-13,1.44a9.51,9.51,0,0,1-6.92-5.4A9.82,9.82,0,0,1,68.29,65c1.28,4.33,5.34,7.35,10.64,7.51A62,62,0,0,0,86.5,71.76Z" transform="translate(-19.96 -28.36)"/><path d="M92.17,64.86c-6.77-2.48-12.89-7.14-20.86-6.63C75,56.65,84.94,59.82,92.17,64.86Z" transform="translate(-19.96 -28.36)"/><path d="M85.34,77.71c-0.06.33-.08,0.66-0.17,1a6.59,6.59,0,0,1-.39,1.17,7,7,0,0,0,0,6.31,7.54,7.54,0,0,1-.6,7.75c-2.52,3.72-2.84,7.61-1.69,11.85,0.39,1.47.52,3,.78,4.51H82.77c-0.4-1.53-.77-3.08-1.22-4.61-1.2-4.05-1-8,1.32-11.55a8.54,8.54,0,0,0,1-8.54C82.59,82.62,84.09,80.2,85.34,77.71Z" transform="translate(-19.96 -28.36)"/><path d="M81,78.58l0.48,0C75.09,80.17,72.2,85,70.31,90.82,71.15,84,75.84,78.9,81,78.58Z" transform="translate(-19.96 -28.36)"/><path class="cls-1" d="M80.79,77.08L81,78.58c-5.16.32-9.85,5.39-10.69,12.24l0.83,0.39c-1.85,4.13-2.86,8.52-2.32,11.56l-0.21,1.62a2.62,2.62,0,0,0-1,.11,4.29,4.29,0,0,1,3.43,2.68l-0.47.16-0.46.12q0.74,3.06,1.5,6.12l-0.33.17a33.79,33.79,0,0,0-1.77-3.21c-2.73-4.34-4.34-8.89-2.79-14.11A10.2,10.2,0,0,0,67,94.16a65.75,65.75,0,0,1,.43-7.24,11.72,11.72,0,0,1,10.2-9.51C78.67,77.28,79.74,77.22,80.79,77.08Z" transform="translate(-19.96 -28.36)"/><path d="M81,87.56a2.28,2.28,0,0,1,.69-0.29,27.53,27.53,0,0,0-5.9,17.44,30.52,30.52,0,0,1-.16-5.15,22.33,22.33,0,0,1,4.45-11A11.94,11.94,0,0,1,81,87.56Z" transform="translate(-19.96 -28.36)"/><path d="M82.47,89.66C81.38,92.25,80,95,79,98a42.16,42.16,0,0,0-1.23,6.2c-0.41,2.32.89,3.9,2.38,5.38a7.29,7.29,0,0,1,1.12,1.24c-3.84-1-4.92-6.12-9.34-6.22l0.22-.6c1.23,0.39,2.45.77,3.69,1.14h0l0.12,0.1,1.41,1.29A23.37,23.37,0,0,1,82.47,89.66Z" transform="translate(-19.96 -28.36)"/><path d="M80.1,82.5c-4.48,5.9-8.21,12-9.18,19.42C70.09,96.77,76.45,84.67,80.1,82.5Z" transform="translate(-19.96 -28.36)"/><path class="cls-3" d="M75.84,105.12L76,105.23l-0.12-.1h0Z" transform="translate(-19.96 -28.36)"/><path d="M75.82,105.1c0-.13,0-0.25,0-0.37l0,0.38h0Z" transform="translate(-19.96 -28.36)"/><path d="M75.84,105.12h0Z" transform="translate(-19.96 -28.36)"/><rect x="75.83" y="105.11" width="0.01" height="0.01" transform="translate(-31.84 -18.68) rotate(-6.78)"/><path d="M80,80.16c-6.88,6.3-9.17,11-11.22,22.62-0.54-3,.47-7.43,2.32-11.56C73.33,86.28,76.71,81.7,80,80.16Z" transform="translate(-19.96 -28.36)"/><path d="M68.28,64.9v0h0Z" transform="translate(-19.96 -28.36)"/><path d="M70.58,107.36l1.64,6.09-0.6.16q-0.75-3.07-1.5-6.12Z" transform="translate(-19.96 -28.36)"/><path d="M73.66,112.35c-1.43-1.37-1.79-3.47-2.61-5.16a4.29,4.29,0,0,0-3.43-2.68,2.62,2.62,0,0,1,1-.11C70.92,104.52,72.88,107.48,73.66,112.35Z" transform="translate(-19.96 -28.36)"/><path class="cls-4" d="M195.25,130.45a29.27,29.27,0,0,0-14.69-2.19,15.68,15.68,0,0,0-9.86,4.52l-7.52-6.19s16-1.5,21.5-5,9-10.5,9.5-16-4.5-4.5-17-11-3-1.5-14-9-8.5-12-14.5-14.5-9-7-24-7-35,16.5-42.88,22.5-9.12,7.5-9.12,16.5,3,8.5,3,18.5-6,9.5-6,9.5a23.44,23.44,0,0,1-2.88,2.77c-2.39-2.3-4.84-5.12-9.55-5.61a29.27,29.27,0,0,0-14.69,2.19c-4.19,2-4.26,5.26-3.21,7,1.43,2.42,4.91,2.07,11.77,1.84,3.13-.1,3.64,2.3,5,4-4.06,5.16-6.62,11.22-8.44,19.73-4.5,21,.5,36,5.5,47s16.5,22.5,37.5,27.5,27,2.5,27,2.5c44-3,54.5-17,62-29.5s5-23.5,6-34-5-23-7-28.5c-0.23-.63-0.5-1.3-0.79-2l0.11-.14c1.5-2,3.33-6.8,8.69-6.62,6.87,0.22,10.35.58,11.77-1.84C199.5,135.71,199.43,132.47,195.25,130.45Z" transform="translate(-19.96 -28.36)"/><path class="cls-5" d="M137.49,67.73a12.33,12.33,0,0,1,2.58-3.65c1.5-1.27,2.25-1.77,3.67-1.85a6.34,6.34,0,0,1,4.17,1.85,8.39,8.39,0,0,1,2.17,4.08C150.24,69.65,137.49,67.73,137.49,67.73Z" transform="translate(-19.96 -28.36)"/><circle cx="146.56" cy="78.8" r="13.01" transform="translate(28.24 184.65) rotate(-82.03)"/><path class="cls-5" d="M135.94,77a6.35,6.35,0,0,1,0-1.59,11.19,11.19,0,0,1,10.77-8.46c5.58,0,10.1,4.3,10.75,8.47" transform="translate(-19.96 -28.36)"/><path class="cls-6" d="M157.9,76.36l-4,.16,4,4.71S158.82,78.06,157.9,76.36Z" transform="translate(-19.96 -28.36)"/><path class="cls-5" d="M99.95,73.57s-1.83-2.67-1.42-5,0.83-3.33,2.46-4.52a5.1,5.1,0,0,1,4.13-1.27c1.54,0.17,3.42,1.38,4.83,4S99.95,73.57,99.95,73.57Z" transform="translate(-19.96 -28.36)"/><path class="cls-5" d="M195.25,130.45a29.27,29.27,0,0,0-14.69-2.19,15.68,15.68,0,0,0-9.86,4.52l-7.52-6.19s16-1.5,21.5-5,9-10.5,9.5-16-4.5-4.5-17-11-3-1.5-14-9-8.5-12-14.5-14.5-9-7-24-7-35,16.5-42.88,22.5-9.12,7.5-9.12,16.5,3,8.5,3,18.5-6,9.5-6,9.5a23.44,23.44,0,0,1-2.88,2.77c-2.39-2.3-4.84-5.12-9.55-5.61a29.27,29.27,0,0,0-14.69,2.19c-4.19,2-4.26,5.26-3.21,7,1.43,2.42,4.91,2.07,11.77,1.84,3.13-.1,3.64,2.3,5,4-4.06,5.16-6.62,11.22-8.44,19.73-4.5,21,.5,24,5.5,35s16.5,22.5,37.5,27.5,27,2.5,27,2.5c44-3,54.5-17,62-29.5s5-11.5,6-22-5-23-7-28.5c-0.23-.63-0.5-1.3-0.79-2l0.11-.14c1.5-2,3.33-6.8,8.69-6.62,6.87,0.22,10.35.58,11.77-1.84C199.5,135.71,199.43,132.47,195.25,130.45Z" transform="translate(-19.96 -28.36)"/><path class="cls-7" d="M190.09,105.59c0.5-5.4-4.5-4.42-17-10.79s-3-1.47-14-8.83-8.5-11.77-14.5-14.23-9-4.83-24-4.83" transform="translate(-19.96 -28.36)"/><ellipse class="cls-8" cx="28.41" cy="133.86" rx="6.7" ry="3.68" transform="translate(-63.6 -10.84) rotate(-19.79)"/><path class="cls-9" d="M29.44,148.78c-0.94-1.52-.65-4.14.92-7.71,1.15-2.63,3.25-2.75,3.5-4.5,0.31-2.16-1.34-2.27-4.54-2.91-4-.79-5.71-0.34-7.79-2.76-1.68-2-.69-5.65,3.54-6.62,3.79-.87,9.39,1.63,11.79,2.63s6.33,4.62,6.83,6.38c0.7,2.45,1.63,5.13,1.25,7.25s-1,4.13-2.5,4.38-3.5-1.06-4.54-.21c-1.75,1.42-.84,2.18-1.11,3.4C36.27,150.48,32.35,153.48,29.44,148.78Z" transform="translate(-19.96 -28.36)"/><ellipse class="cls-8" cx="205.59" cy="133.86" rx="3.68" ry="6.7" transform="translate(-9.93 253.64) rotate(-70.21)"/><path class="cls-9" d="M204.56,148.78c0.94-1.52.65-4.14-.92-7.71-1.15-2.63-3.25-2.75-3.5-4.5-0.31-2.16,1.34-2.27,4.54-2.91,4-.79,5.71-0.34,7.79-2.76,1.68-2,.69-5.65-3.54-6.62-3.79-.87-9.39,1.63-11.79,2.63s-6.33,4.62-6.83,6.38c-0.7,2.45-1.63,5.13-1.25,7.25s1,4.13,2.5,4.38,3.5-1.06,4.54-.21c1.75,1.42.84,2.18,1.11,3.4C197.73,150.48,201.65,153.48,204.56,148.78Z" transform="translate(-19.96 -28.36)"/><ellipse cx="113.93" cy="77.05" rx="13.5" ry="12.95" transform="translate(1.86 150.83) rotate(-82.03)"/><path class="cls-6" d="M124.65,76.74a12.79,12.79,0,0,1-.12,1.33c-0.9,6.44-6.49,11-12.48,10.14-5.58-.78-9.53-5.95-9.33-11.86" transform="translate(-19.96 -28.36)"/><ellipse cx="91.87" cy="49.38" rx="1.69" ry="1.53"/><path class="cls-5" d="M102.65,75.56a9.23,9.23,0,0,1,.31-1.94c1.94-4.89,6.46-9.51,12.66-8.65,5.77,0.81,9.66,6.82,9.58,12" transform="translate(-19.96 -28.36)"/><path class="cls-4" d="M102.65,75.56a1.41,1.41,0,0,1,0-.86c3.2-4.42,8.66-6,12.28-6,5.42,0,10.11,4.4,10.22,8.25" transform="translate(-19.96 -28.36)"/><path class="cls-9" d="M172.74,96.4s-3.83-.33-4.75,1.33-2.42,2.67-1.67,5.92,2.25,8.25,5.92,10.92a12,12,0,0,0,9,1.83c1.33-.17,5.75-1,8.21-4.42s4-6.17,4.19-8.58,0-4.42-1.65-5.83-2.58-1.22-4.83-1.19S172.74,96.4,172.74,96.4Z" transform="translate(-19.96 -28.36)"/><path class="cls-8" d="M172.74,99.32S168.9,99,168,100.46s-2.42,2.28-1.67,5.06,2.25,7.06,5.92,9.34,7.67,1.71,9,1.57,5.75-.86,8.21-3.78,4-5.28,4.19-7.34,0-3.78-1.65-5-2.58-1-4.83-1S172.74,99.32,172.74,99.32Z" transform="translate(-19.96 -28.36)"/><ellipse cx="158.57" cy="77.29" rx="2.13" ry="3.67"/><ellipse cx="165.99" cy="77.29" rx="2.13" ry="3.67"/><path d="M159.95,159.15s-1.25,6-19.25,6.75-23.76-.75-27.88-3.37-7.21-4.34-8.12-11.27a64.13,64.13,0,0,1,3.2-28.61c3.3-9.38,3.58-10.45,3.57-10.52s0.35-1.16.37-1.15a75.4,75.4,0,0,0,37,13.8s3.67,14.79,9.11,30.37C159.37,159.37,159.95,159.15,159.95,159.15Z" transform="translate(-19.96 -28.36)"/><path class="cls-10" d="M151.28,162.7s-11.6,1.9-16.75,2c-6.37.07-12.25-.12-18.37-2.87,0,0,.25-10.83,7.5-11.84,4.21-.58,7.75,2,10.13,7.39,0,0,.75-5.35,5.13-7.39s6.38-1.21,8.25,0S150.65,155,151.28,162.7Z" transform="translate(-19.96 -28.36)"/><path class="cls-11" d="M138.44,66a9.06,9.06,0,0,1,1.63-1.94c1.5-1.27,2.25-1.77,3.67-1.85a6.34,6.34,0,0,1,4.17,1.85,10.23,10.23,0,0,1,1.68,2.49" transform="translate(-19.96 -28.36)"/><path class="cls-12" d="M33,151.94c-1.06,0-2.62-.47-4-2.72h0c-1-1.69-.75-4.44.88-8.17a7.15,7.15,0,0,1,2.27-2.8,2.59,2.59,0,0,0,1.19-1.57c0.2-1.38-.37-1.62-3.35-2.19l-0.8-.16c-1-.19-1.8-0.31-2.53-0.41-2.32-.33-3.85-0.55-5.54-2.51a3.9,3.9,0,0,1-.68-3.79A5.82,5.82,0,0,1,24.92,124c3.74-.86,9.1,1.39,11.67,2.47L37,126.63c2.49,1,6.17,4.85,7.08,6.61a11.83,11.83,0,0,1,1.3,7.57c-0.36,2.06-1,4.47-2.91,4.78a5.8,5.8,0,0,1-2.28-.25,2.68,2.68,0,0,0-2-.06,1.79,1.79,0,0,0-.9,1.93,3.72,3.72,0,0,1,0,1.18,4.83,4.83,0,0,1-3.65,3.51A3.53,3.53,0,0,1,33,151.94Zm-3.16-3.25c1,1.67,2.28,2.44,3.59,2.21a3.82,3.82,0,0,0,2.85-2.74,2.82,2.82,0,0,0,0-.88,2.73,2.73,0,0,1,1.27-2.8c0.79-.64,1.86-0.38,2.89-0.13a5.14,5.14,0,0,0,1.88.24c1-.16,1.64-1.42,2.09-4a10.85,10.85,0,0,0-1.21-6.93c-0.82-1.59-4.39-5.23-6.58-6.14l-0.43-.18c-2.48-1-7.63-3.21-11.06-2.42a4.85,4.85,0,0,0-3.77,3,2.9,2.9,0,0,0,.49,2.83c1.45,1.68,2.68,1.85,4.92,2.17,0.75,0.11,1.6.23,2.59,0.42l0.79,0.15c2.71,0.52,4.5.87,4.15,3.31a3.45,3.45,0,0,1-1.55,2.2,6.21,6.21,0,0,0-2,2.43c-1.47,3.36-1.8,5.87-.95,7.24h0Z" transform="translate(-19.96 -28.36)"/><path class="cls-12" d="M70.09,145.95c2.23-3.64-.87-7.85-2.31-9.49-3.1-3.54-6-6.85-12.49-7.52A29.39,29.39,0,0,0,41.5,130.8l-0.39-.92a30.55,30.55,0,0,1,14.28-1.93c6.87,0.71,9.9,4.17,13.12,7.84,1.6,1.83,5,6.49,2.43,10.69" transform="translate(-19.96 -28.36)"/><path class="cls-12" d="M65.41,149.93H65.06a10.82,10.82,0,0,1-7.55-3.51c-0.27-.36-0.55-0.81-0.87-1.31-1.38-2.22-3.27-5.22-7.41-5.12l-1.7.06-2.53.08,0-1,2.52-.08L49.2,139c4.68-.18,6.86,3.3,8.29,5.58,0.29,0.47.56,0.9,0.82,1.24a9.73,9.73,0,0,0,7.06,3.1" transform="translate(-19.96 -28.36)"/><path class="cls-12" d="M26,138.69a8.06,8.06,0,0,1-1.25-.09,3.64,3.64,0,0,1-3.12-2.11c-0.46-1.28.12-2.8,1.6-4.16l0.68,0.73c-1.15,1.06-1.65,2.22-1.33,3.09a2.72,2.72,0,0,0,2.33,1.46,9.53,9.53,0,0,0,4.57-.57,9.89,9.89,0,0,0,3.65-2.23l0.71,0.7a10.91,10.91,0,0,1-4,2.47A11.44,11.44,0,0,1,26,138.69Z" transform="translate(-19.96 -28.36)"/><path class="cls-12" d="M200.41,151.89a4.83,4.83,0,0,1-3.65-3.51,3.72,3.72,0,0,1,0-1.18,1.79,1.79,0,0,0-.9-1.93,2.68,2.68,0,0,0-2,.06,5.8,5.8,0,0,1-2.28.25c-1.89-.31-2.55-2.72-2.91-4.78a11.83,11.83,0,0,1,1.3-7.57c0.91-1.76,4.59-5.57,7.08-6.61l0.43-.18c2.57-1.08,7.93-3.33,11.67-2.47a5.82,5.82,0,0,1,4.49,3.65,3.9,3.9,0,0,1-.68,3.79c-1.69,2-3.22,2.18-5.54,2.51-0.74.1-1.57,0.22-2.53,0.41l-0.8.16c-3,.58-3.55.81-3.35,2.19a2.59,2.59,0,0,0,1.19,1.57,7.15,7.15,0,0,1,2.27,2.8c1.64,3.73,1.93,6.48.88,8.17h0c-1.39,2.25-2.95,2.72-4,2.72A3.53,3.53,0,0,1,200.41,151.89Zm3.76-3.19c0.85-1.38.53-3.88-.95-7.24a6.21,6.21,0,0,0-2-2.43,3.45,3.45,0,0,1-1.55-2.2c-0.35-2.45,1.44-2.79,4.15-3.31l0.79-.15c1-.2,1.84-0.32,2.59-0.42,2.24-.32,3.47-0.49,4.92-2.17a2.9,2.9,0,0,0,.49-2.83,4.85,4.85,0,0,0-3.77-3c-3.42-.79-8.58,1.38-11.06,2.42l-0.43.18c-2.19.91-5.75,4.55-6.58,6.14a10.85,10.85,0,0,0-1.21,6.93c0.45,2.54,1.11,3.81,2.09,4a5.14,5.14,0,0,0,1.88-.24c1-.25,2.1-0.51,2.89.13a2.73,2.73,0,0,1,1.27,2.8,2.82,2.82,0,0,0,0,.88,3.82,3.82,0,0,0,2.85,2.74c1.31,0.23,2.56-.54,3.59-2.21h0Z" transform="translate(-19.96 -28.36)"/><path class="cls-12" d="M175.19,147.67a6.83,6.83,0,0,0,1.31-1.24c0.27-.36.55-0.81,0.87-1.31,1.38-2.22,3.27-5.22,7.41-5.12l1.7,0.06,2.53,0.08,0-1-2.52-.08L184.8,139c-4.68-.18-6.86,3.3-8.29,5.58-0.29.47-.56,0.9-0.82,1.24a5.58,5.58,0,0,1-1,1" transform="translate(-19.96 -28.36)"/><path class="cls-12" d="M168.79,133.66a15.36,15.36,0,0,1,9.91-4.72,29.39,29.39,0,0,1,13.79,1.86l0.39-.92a30.55,30.55,0,0,0-14.28-1.93,16.1,16.1,0,0,0-10.17,4.67" transform="translate(-19.96 -28.36)"/><path class="cls-12" d="M208,138.69a8.06,8.06,0,0,0,1.25-.09,3.64,3.64,0,0,0,3.12-2.11c0.46-1.28-.12-2.8-1.6-4.16l-0.68.73c1.15,1.06,1.65,2.22,1.33,3.09a2.72,2.72,0,0,1-2.33,1.46,9.53,9.53,0,0,1-4.57-.57,9.89,9.89,0,0,1-3.65-2.23l-0.71.7a10.91,10.91,0,0,0,4,2.47A11.44,11.44,0,0,0,208,138.69Z" transform="translate(-19.96 -28.36)"/><line class="cls-13" x1="81.9" y1="47.85" x2="105.86" y2="48.46"/><path class="cls-14" d="M193.36,104.24c1.58,4.77-4,12.82-7.27,15.65-6.15,5.28-16,5.92-23.73,6.7a89.51,89.51,0,0,1,6.83,6" transform="translate(-19.96 -28.36)"/><path class="cls-14" d="M118.9,65.34c8.89-1.73,18-.57,27.51,5.08C154,75,158.91,83,166.35,88.41a81,81,0,0,0,13.7,7.93" transform="translate(-19.96 -28.36)"/><path class="cls-14" d="M65.8,133.31l0.59-.43c5.92-4.23,9.28-5.15,8.34-14.58-0.79-8-5.63-16.61-1.26-24.58C77,87.32,87.09,81.72,93,77.59a120.82,120.82,0,0,1,10.18-6.66" transform="translate(-19.96 -28.36)"/><path class="cls-11" d="M99.95,73.57s-1.83-2.67-1.42-5,0.83-3.33,2.46-4.52a5.1,5.1,0,0,1,4.13-1.27,5.69,5.69,0,0,1,3.49,2" transform="translate(-19.96 -28.36)"/><path class="cls-11" d="M172.74,96.4s-3.83-.33-4.75,1.33-2.42,2.67-1.67,5.92,2.25,8.25,5.92,10.92a12,12,0,0,0,9,1.83c1.33-.17,5.75-1,8.21-4.42s4-6.17,4.19-8.58,0-4.42-1.65-5.83-2.58-1.22-4.83-1.19S172.74,96.4,172.74,96.4Z" transform="translate(-19.96 -28.36)"/><path class="cls-14" d="M176.92,145.27l0.26,0.68c3.92,10.49,3.47,9.25,3.92,10.49,2,5.55,3.73,11.3,3.87,17.25,0.29,12.37.12,25.92-6.11,36.91-6.37,11.23-15.9,18.91-28,23.3-31.61,11.41-81.62,10.89-98.46-23.8-9.63-19.83-11-47.22,2.83-65.52l0.93-1.21" transform="translate(-19.96 -28.36)"/><path class="cls-1" d="M89.92,74.21l-3.76,6.31L85.58,84l1.09,3.84L86.54,92l-3.39,7,0.6,5,1,5.42s2.7,0.64-.18,1.24-3.24.83-4.94-1-3.34-4.52-2.89-1.77,1,3.41-.64,4.45-3.62-.58-3.62-0.58L69,97.91,70.6,87.34l-1.24-3.59-0.43-4.62s-2.19-1.31-1.07-2.61S66.72,67.92,70,70,89.92,74.21,89.92,74.21Z" transform="translate(-19.96 -28.36)"/><path d="M90.93,71.55h0Z" transform="translate(-19.96 -28.36)"/><path d="M90.9,71.53h0Z" transform="translate(-19.96 -28.36)"/><path d="M88.67,71.76l2.19-.21c-4.23,1.58-8.52,2.51-13,1.44a9.51,9.51,0,0,1-6.92-5.4A9.82,9.82,0,0,1,70.46,65c1.28,4.33,5.34,7.35,10.64,7.51A62,62,0,0,0,88.67,71.76Z" transform="translate(-19.96 -28.36)"/><path d="M87.51,77.71c-0.06.33-.08,0.66-0.17,1a6.59,6.59,0,0,1-.39,1.17,7,7,0,0,0,0,6.31,7.54,7.54,0,0,1-.6,7.75c-2.52,3.72-2.84,7.61-1.69,11.85,0.39,1.47.52,3,.78,4.51H84.94c0-.09,0-0.17-0.07-0.26-0.37-1.45-.73-2.91-1.15-4.35a13.81,13.81,0,0,1,.23-9.48A12.65,12.65,0,0,1,85,94.11a8.54,8.54,0,0,0,1-8.54C84.76,82.62,86.26,80.2,87.51,77.71Z" transform="translate(-19.96 -28.36)"/><path d="M72.48,90.82c0.87-7.06,5.82-12.23,11.17-12.26C77.25,80.17,74.37,85,72.48,90.82Z" transform="translate(-19.96 -28.36)"/><path d="M83.21,87.56a2.28,2.28,0,0,1,.69-0.29A27.53,27.53,0,0,0,78,104.71a30.52,30.52,0,0,1-.16-5.15,22.33,22.33,0,0,1,4.45-11A11.94,11.94,0,0,1,83.21,87.56Z" transform="translate(-19.96 -28.36)"/><path d="M84.64,89.66c-0.82,1.94-1.79,4-2.65,6.14-0.28.72-.56,1.44-0.81,2.17a42.16,42.16,0,0,0-1.23,6.2c-0.41,2.32.89,3.9,2.38,5.38a10.87,10.87,0,0,1,.87.9,2.81,2.81,0,0,1,.25.34c-3.84-1-4.92-6.12-9.34-6.22l0.22-.6c1.23,0.39,2.45.77,3.69,1.14h0l0.12,0.1,1.41,1.29A23.37,23.37,0,0,1,84.64,89.66Z" transform="translate(-19.96 -28.36)"/><path d="M82.27,82.5c-4.48,5.9-8.21,12-9.18,19.42C72.26,96.77,78.62,84.67,82.27,82.5Z" transform="translate(-19.96 -28.36)"/><path class="cls-3" d="M78,105.12l0.12,0.11-0.12-.1h0Z" transform="translate(-19.96 -28.36)"/><path d="M78,105.1c0-.13,0-0.25,0-0.37l0,0.38h0Z" transform="translate(-19.96 -28.36)"/><path d="M78,105.12h0Z" transform="translate(-19.96 -28.36)"/><rect x="78" y="105.11" width="0.01" height="0.01" transform="translate(-31.82 -18.42) rotate(-6.78)"/><path d="M82.21,80.16c-6.88,6.3-9.17,11-11.22,22.62C69.8,96.1,76.08,83,82.21,80.16Z" transform="translate(-19.96 -28.36)"/><path d="M70.45,64.9V65s0,0,0,0h0Z" transform="translate(-19.96 -28.36)"/><path d="M72.75,107.36l1.64,6.09-0.6.16q-0.75-3.07-1.5-6.12Z" transform="translate(-19.96 -28.36)"/><path d="M75.83,112.35c-2.54-2.44-1.73-7.17-6-7.85C72.52,103.72,75,106.8,75.83,112.35Z" transform="translate(-19.96 -28.36)"/><path d="M117.74,55.23s0.51-3,0-4.17-3.09-1.58-4.51-.67a7.77,7.77,0,0,0-3.42,6.67S112.07,54.4,117.74,55.23Z" transform="translate(-19.96 -28.36)"/><path d="M143.71,55.23s-0.51-3,0-4.17,3.09-1.58,4.51-.67a7.77,7.77,0,0,1,3.42,6.67S149.39,54.4,143.71,55.23Z" transform="translate(-19.96 -28.36)"/><path d="M140.57,124.23l5,17.79a17.9,17.9,0,0,0,10,2.42c6.25-.17,8.58-1.5,8.58-1.5l4.92-17.25-12.83-.46C150.15,125,140.57,124.23,140.57,124.23Z" transform="translate(-19.96 -28.36)"/><path class="cls-3" d="M143.07,124.78l4.08,16.46a23.94,23.94,0,0,0,8.64,1.16c5.3-.15,7.28-1.31,7.28-1.31l4.17-15-10.88-.4C151.2,125.46,143.07,124.78,143.07,124.78Z" transform="translate(-19.96 -28.36)"/><line class="cls-13" x1="136.17" y1="97.42" x2="135.83" y2="114.03"/><path class="cls-11" d="M171.61,125.52a46.74,46.74,0,0,1-12.71.88,153.61,153.61,0,0,1-18.75-3.25c-18.29-4.28-28.32-7.75-35.42-22.5" transform="translate(-19.96 -28.36)"/><path d="M106.06,101.24a7.82,7.82,0,0,1,6.78,1.37A6.67,6.67,0,0,0,107,98.9c-3.76,0-6.8,3.47-6.8,7.75a8.85,8.85,0,0,0,.06,1A7.84,7.84,0,0,1,106.06,101.24Z" transform="translate(-19.96 -28.36)"/></svg>